<svg xmlns="http://www.w3.org/2000/svg" viewBox="0 0 128 128" role="img" aria-label="Data Grip icon">
  <defs>
    <linearGradient id="bg" x1="16" y1="10" x2="112" y2="118" gradientUnits="userSpaceOnUse">
      <stop offset="0" stop-color="#202833"/>
      <stop offset="0.52" stop-color="#151A21"/>
      <stop offset="1" stop-color="#0E1117"/>
    </linearGradient>
    <linearGradient id="db" x1="27" y1="28" x2="74" y2="92" gradientUnits="userSpaceOnUse">
      <stop offset="0" stop-color="#6AB7FF"/>
      <stop offset="1" stop-color="#2D7DDB"/>
    </linearGradient>
    <linearGradient id="filter" x1="74" y1="34" x2="108" y2="86" gradientUnits="userSpaceOnUse">
      <stop offset="0" stop-color="#82E6A5"/>
      <stop offset="1" stop-color="#34B37E"/>
    </linearGradient>
    <filter id="shadow" x="-20%" y="-20%" width="140%" height="140%">
      <feDropShadow dx="0" dy="8" stdDeviation="8" flood-color="#000000" flood-opacity="0.34"/>
    </filter>
  </defs>

  <rect x="8" y="8" width="112" height="112" rx="24" fill="url(#bg)"/>
  <rect x="8.75" y="8.75" width="110.5" height="110.5" rx="23.25" fill="none" stroke="#3E4652" stroke-width="1.5"/>

  <g filter="url(#shadow)">
    <path d="M26 38c0-8.3 11.2-15 25-15s25 6.7 25 15v39c0 8.3-11.2 15-25 15S26 85.3 26 77V38Z" fill="#111820"/>
    <ellipse cx="51" cy="38" rx="25" ry="15" fill="url(#db)"/>
    <path d="M26 38v19c0 8.3 11.2 15 25 15s25-6.7 25-15V38" fill="none" stroke="#8FCBFF" stroke-width="5" stroke-linecap="round"/>
    <path d="M26 57v20c0 8.3 11.2 15 25 15s25-6.7 25-15V57" fill="none" stroke="#2A6EBB" stroke-width="5" stroke-linecap="round"/>
    <ellipse cx="51" cy="38" rx="17" ry="8.5" fill="#111820" opacity="0.26"/>
  </g>

  <g filter="url(#shadow)">
    <rect x="53" y="48" width="52" height="43" rx="9" fill="#F3F7FB"/>
    <rect x="60" y="56" width="12" height="9" rx="2" fill="#2D7DDB"/>
    <rect x="76" y="56" width="22" height="9" rx="2" fill="#A9B4C0"/>
    <rect x="60" y="70" width="12" height="9" rx="2" fill="#A9B4C0"/>
    <rect x="76" y="70" width="22" height="9" rx="2" fill="#2D7DDB"/>
    <rect x="60" y="84" width="38" height="2.6" rx="1.3" fill="#CBD3DB"/>
  </g>

  <path d="M78 31h36L99.5 48.2v17.7L92 70V48.2L78 31Z" fill="url(#filter)" stroke="#D4FFE1" stroke-width="4" stroke-linejoin="round" filter="url(#shadow)"/>
  <path d="M84 37h24" stroke="#FFFFFF" stroke-opacity="0.72" stroke-width="3" stroke-linecap="round"/>
</svg>
