<svg width="256" height="256" viewBox="0 0 256 256" fill="none" xmlns="http://www.w3.org/2000/svg">
  <defs>
    <linearGradient id="bg" x1="18" y1="15" x2="237" y2="238" gradientUnits="userSpaceOnUse">
      <stop stop-color="#101827"/>
      <stop offset="1" stop-color="#070B12"/>
    </linearGradient>
    <linearGradient id="data" x1="72" y1="57" x2="183" y2="182" gradientUnits="userSpaceOnUse">
      <stop stop-color="#8BDDFF"/>
      <stop offset=".55" stop-color="#4E9BFF"/>
      <stop offset="1" stop-color="#2656E6"/>
    </linearGradient>
    <linearGradient id="grip" x1="42" y1="60" x2="214" y2="194" gradientUnits="userSpaceOnUse">
      <stop stop-color="#D9FFE7"/>
      <stop offset=".42" stop-color="#4CEB8B"/>
      <stop offset="1" stop-color="#18B8AA"/>
    </linearGradient>
  </defs>

  <rect x="16" y="16" width="224" height="224" rx="46" fill="url(#bg)"/>
  <rect x="18" y="18" width="220" height="220" rx="44" stroke="#263449" stroke-width="4"/>

  <path d="M79 85C79 68 99 57 128 57C157 57 177 68 177 85V163C177 180 157 191 128 191C99 191 79 180 79 163V85Z" fill="url(#data)"/>
  <ellipse cx="128" cy="85" rx="49" ry="28" fill="#0A101C" stroke="#8BDDFF" stroke-width="10"/>
  <path d="M79 123C79 139 99 150 128 150C157 150 177 139 177 123" stroke="#D7EAFF" stroke-width="8" stroke-linecap="round" opacity=".68"/>
  <path d="M79 163C79 180 99 191 128 191C157 191 177 180 177 163" stroke="#183BBD" stroke-width="8" stroke-linecap="round" opacity=".55"/>

  <path d="M65 69C50 69 43 79 43 93V108C43 119 37 124 29 127C37 130 43 136 43 147V163C43 177 50 187 65 187" stroke="url(#grip)" stroke-width="17" stroke-linecap="round" stroke-linejoin="round"/>
  <path d="M191 69C206 69 213 79 213 93V108C213 119 219 124 227 127C219 130 213 136 213 147V163C213 177 206 187 191 187" stroke="url(#grip)" stroke-width="17" stroke-linecap="round" stroke-linejoin="round"/>
  <path d="M102 207H154" stroke="#ECF6FF" stroke-width="10" stroke-linecap="round"/>
  <path d="M170 207H187" stroke="#4CEB8B" stroke-width="10" stroke-linecap="round"/>
</svg>
